C:\GBW_MyPrograms\PredSim\Subjects\Ines_test\Kleuter\Kleuter_v1.mot
version=1
nRows=7
nColumns=31
inDegrees=yes
endheader
                time	         pelvis_tilt	           pelvis_tx	           pelvis_ty	       hip_flexion_r	        knee_angle_r	       ankle_angle_r	       hip_flexion_l	        knee_angle_l	       ankle_angle_l	    lumbar_extension	          arm_flex_r	          arm_flex_l	hamstrings_r/activation	bifemsh_r/activation	glut_max_r/activation	iliopsoas_r/activation	rect_fem_r/activation	  vasti_r/activation	gastroc_r/activation	 soleus_r/activation	tib_ant_r/activation	hamstrings_l/activation	bifemsh_l/activation	glut_max_l/activation	iliopsoas_l/activation	rect_fem_l/activation	  vasti_l/activation	gastroc_l/activation	 soleus_l/activation	tib_ant_l/activation	
          0.00000000	         -0.50570171	          0.00000000	          0.46242016	         19.14597937	        -26.78500553	         -6.56076920	          0.92292016	        -23.10729553	        -17.63099714	         -4.51012738	         -3.08690273	         -3.08689403	          0.24324492	          0.54809187	          0.18060723	          0.46803885	          0.45446216	          0.31886492	          0.26822433	          0.11646763	          0.68927756	          0.32250214	          0.57054977	          0.38935102	          0.64828281	          0.48096658	          0.28886446	          0.50082779	          0.37872946	          0.59917412	
          0.00529891	         -0.54117983	          0.00293141	          0.46188226	         19.45698455	        -26.55440524	         -6.51964766	          0.80989484	        -23.50008724	        -17.68710565	         -4.44215754	         -3.16263367	         -3.16262671	          0.28828165	          0.54606438	          0.19607636	          0.47804462	          0.45387866	          0.32536464	          0.27670692	          0.12506112	          0.68365476	          0.31604597	          0.56473446	          0.37312896	          0.65379977	          0.47582293	          0.27502439	          0.50112225	          0.37551518	          0.60966496	
          0.01059781	         -0.58154374	          0.00595937	          0.46134966	         19.61765693	        -26.43395264	         -6.53623184	          0.75209054	        -24.00017241	        -17.72702803	         -4.34541792	         -3.26866182	         -3.26865605	          0.32432908	          0.54648991	          0.22077832	          0.49386123	          0.45082602	          0.31079307	          0.29014367	          0.13543672	          0.68330435	          0.30874107	          0.55749017	          0.36453050	          0.64194192	          0.43956546	          0.25595638	          0.50166239	          0.37398882	          0.62148887	
          0.01589672	         -0.62551521	          0.00908277	          0.46080888	         19.62811038	        -26.46425062	         -6.62391247	          0.74963327	        -24.61715354	        -17.73852411	         -4.22153277	         -3.40367336	         -3.40366936	          0.34264462	          0.58066490	          0.24304155	          0.51725648	          0.45317438	          0.29269341	          0.30257767	          0.16573986	          0.69284102	          0.31070927	          0.56152789	          0.38243883	          0.61512677	          0.40566878	          0.23606015	          0.50457869	          0.37520759	          0.62772179	
          0.02119562	         -0.67120707	          0.01229441	          0.46024265	         19.51896212	        -26.69544890	         -6.76249846	          0.78357995	        -25.32742751	        -17.72075025	         -4.07435510	         -3.56434800	         -3.56434523	          0.34856824	          0.57404876	          0.27865231	          0.51414379	          0.44925218	          0.28178057	          0.31237733	          0.17663383	          0.67013425	          0.31735925	          0.59065019	          0.38735422	          0.57783543	          0.37521958	          0.21786392	          0.50741034	          0.37849300	          0.63012863	
          0.02649453	         -0.71765348	          0.01559088	          0.45964489	         19.26161845	        -26.88248606	         -6.89977797	          0.83978558	        -26.11098010	        -17.68835606	         -3.90572493	         -3.74881569	         -3.74881457	          0.34828739	          0.59097665	          0.31959877	          0.53745956	          0.44629205	          0.26053000	          0.31286111	          0.17517996	          0.68291363	          0.30009843	          0.58320781	          0.42052182	          0.55786604	          0.34683463	          0.20110361	          0.50509564	          0.37901181	          0.63454842	
          0.03179343	         -0.76353272	          0.01894401	          0.45900118	         18.94093807	        -27.04606726	         -6.98324871	          0.89401978	        -26.91874710	        -17.64468018	         -3.72423618	         -3.94737310	         -3.94737332	          0.34300009	          0.58779912	          0.35472792	          0.54885389	          0.43877489	          0.26120802	          0.31812100	          0.18285495	          0.68139599	          0.28490121	          0.57020028	          0.43871855	          0.53990207	          0.34729932	          0.18755290	          0.50166291	          0.37709190	          0.63914553	
